PathFileType	4	(X/Y/Z)	pose_F01_0-90.trc
DataRate	CameraRate	NumFrames	NumMarkers	Units	OrigDataRate	OrigDataStartFrame	OrigNumFrames
30	30	5	21	m	30	45	90
Frame#	Time	CHip			RHip			RKnee			RAnkle			RBigToe			RSmallToe			RHeel			LHip			LKnee			LAnkle			LBigToe			LSmallToe			LHeel			Neck			Nose			RShoulder			RElbow			RWrist			LShoulder			LElbow			LWrist			
		X1	Y1	Z1	X2	Y2	Z2	X3	Y3	Z3	X4	Y4	Z4	X5	Y5	Z5	X6	Y6	Z6	X7	Y7	Z7	X8	Y8	Z8	X9	Y9	Z9	X10	Y10	Z10	X11	Y11	Z11	X12	Y12	Z12	X13	Y13	Z13	X14	Y14	Z14	X15	Y15	Z15	X16	Y16	Z16	X17	Y17	Z17	X18	Y18	Z18	X19	Y19	Z19	X20	Y20	Z20	X21	Y21	Z21	
45	1.5	-0.2350253809186949	1.8258307952425132	-0.5374639863571488	-0.24746383307946945	1.8244913345349747	-0.4796692396762687	-0.23978899566208117	1.6809444628581436	-0.4809704053642325	-0.20764020311558662	1.5660263831942283	-0.49948442985905317	-0.24151813589566756	1.5265173219959016	-0.5045101073755103				-0.1958075424233134	1.5630145762922651	-0.4896745283001192	-0.2185363043717796	1.8275979829814586	-0.5941187152854086	-0.2318399576764281	1.6900685039642094	-0.5657400194165094	-0.2041553327888832	1.5544397023048615	-0.5718486811822221	-0.24856447761137504	1.520106520162879	-0.5878769447742676	-0.2374810184868568	1.5232220610559717	-0.6028036033936491	-0.19360356825531727	1.5442410012126964	-0.5601538418425306	-0.21313709666339936	1.982007479702289	-0.5539711233004583	-0.24533497187971853	2.053642944866827	-0.5864801503775707	-0.23508349469439954	1.9778010905196521	-0.4743026627132861	-0.25059926310780023	1.8915635448376538	-0.44457610189535546	-0.265711757351033	1.8216693593969566	-0.43257655204611456	-0.18790836894377044	1.9862182092159137	-0.6394304876747148	-0.16329917223358653	1.9173157170529305	-0.6649331583106463	-0.20283021278640115	1.869135969307107	-0.663444557585291
46	1.5333333333333334	-0.2334654460852912	1.817784770146271	-0.538607410634664	-0.24783725622214653	1.8151723589822881	-0.4869086640357176	-0.24741352294029234	1.6749084140756032	-0.4766184234946031	-0.20764020311558662	1.5660263831942283	-0.49948442985905317	-0.24151813589566756	1.5265173219959016	-0.5045101073755103				-0.1958075424233134	1.5630145762922651	-0.4896745283001192	-0.2171879769025709	1.8195103989903894	-0.5950696087386687	-0.2409653828604874	1.686584463113421	-0.5645556098166686	-0.19754421394100866	1.557429516706471	-0.5789996967666264	-0.23787613456726925	1.5216883132307533	-0.5986081563369683	-0.2261319864946444	1.524806463072051	-0.6144929594366219	-0.18276537258461753	1.5504549259492675	-0.5720098795763657	-0.2143896016066651	1.9744858074107483	-0.5564925554856789	-0.2475683191848176	2.051200656961589	-0.584665449693028	-1.792415268921841	1.8890859640891307	1.2434418021199862	-0.2438683101493	1.8866536979508786	-0.43851780136741597	-0.2553597273582224	1.8203223359941163	-0.4257740215770207	-0.18689803413217526	1.981159729916532	-0.6445663022701799	-0.1626477153769073	1.9085167714777909	-0.6657312152864129	-0.18953268002366863	1.8915137084141747	-0.6883361736768641
47	1.5666666666666667	-0.23217105582492603	1.8095721303790602	-0.5430487968627377	-0.24775295878129483	1.8070347564896576	-0.48615336699126166	-0.25686627418539537	1.673042009128879	-0.4885704901827038	-0.20764020311558662	1.5660263831942283	-0.49948442985905317	-0.24151813589566756	1.5265173219959016	-0.5045101073755103				-0.1958075424233134	1.5630145762922651	-0.4896745283001192	-0.21599168773959102	1.8134902332059857	-0.5998133420120674	-0.24541463735504485	1.6843463643527663	-0.5854885724301426	-0.1832866456630663	1.5685323597520595	-0.5946377980928662	-0.21895779733992912	1.5257189828399327	-0.6090913812448067	-0.2052796257201218	1.536664784409978	-0.6279043667905471	-0.1667190713011858	1.5594002726505114	-0.5856002748243099	-0.21231186570286842	1.9728768403306312	-0.5583240791521734	-0.24555321991371357	2.0445843771043357	-0.5852064524178915	-0.23731207973799248	1.968816032055835	-0.47954107082570224	-0.2417620528736815	1.8709756113251466	-0.439830286534938	-0.2553597273582224	1.8203223359941163	-0.4257740215770207	-0.18703600101464843	1.9765871787472256	-0.6440933470541904	-0.16199625852022806	1.8997178259026513	-0.6665292722621795	-0.1762351472609361	1.9138914475212425	-0.7132277897684371
48	1.6	-0.2276247535447454	1.8089496552465785	-0.5478410855116562	-0.24330864001362615	1.8058499221521551	-0.4907589230714466	-0.2502056244350641	1.6727230366210466	-0.5044377662081047	-0.20764020311558662	1.5660263831942283	-0.49948442985905317	-0.24151813589566756	1.5265173219959016	-0.5045101073755103				-0.1958075424233134	1.5630145762922651	-0.4896745283001192	-0.2118603145607376	1.8113638894551158	-0.607821591930017	-0.2446172859403937	1.6895612303076635	-0.6126643463386147	-0.17360005297014616	1.5801670204436589	-0.6097282950624262	-0.20876112304243222	1.5294960491171115	-0.6276009512981497	-0.19475589864369056	1.5392017642997873	-0.6467777980906111	-0.16089372424239629	1.5738182929176014	-0.5921025041594828	-1.672832237779055	1.8845432262052104	1.0367475473014518	-0.24126482586538012	2.0429586185362396	-0.588479725623637	-0.23609191712079888	1.968829591220022	-0.4844502003409903	-0.2331818300011828	1.8682887624044069	-0.44855374848347046	-0.2553597273582224	1.8203223359941163	-0.4257740215770207	-0.18594893683743927	1.975197194976527	-0.6403988076062035	-0.16413778627833306	1.928986767886928	-0.682836452311304	-1.2578972704210314	1.8659093951214938	0.37194687026265305
49	1.6333333333333333	-0.22190416063573892	1.827521643739423	-0.5637731414181517	-0.23271517067552985	1.8195961714794404	-0.5075811265013402	-0.23771075982669523	1.6871703037905426	-0.5107766299947527	-0.20764020311558662	1.5660263831942283	-0.49948442985905317	-0.24151813589566756	1.5265173219959016	-0.5045101073755103				-0.1958075424233134	1.5630145762922651	-0.4896745283001192	-0.20848701912272202	1.8320831299797575	-0.6337655982463792	-0.22714510733285173	1.7015844775388873	-0.6362171391761235	-0.17012309066836864	1.5831827768286695	-0.61342112682876	-0.2026084937942065	1.5351753802831987	-0.6340196756326087	-0.1893182738632462	1.5415053482826477	-0.6565189388250049	-0.1538509752959652	1.5755808377863858	-0.6035426243261324	-0.2037661628123722	1.9846572847287114	-0.5796870810791338	-0.23558247122236345	2.053441311148241	-0.5995605244058733	-0.22346205496994284	1.9781657161385346	-0.49822292068102636	-0.22941862620269882	1.869924454529318	-0.4595893331984909	-0.2553597273582224	1.8203223359941163	-0.4257740215770207	-0.178012610312204	1.9911111104481594	-0.6565173988982007	-0.16627931403643803	1.9582557098712046	-0.6991436323604285	-1.2471355213982058	1.868458725057977	0.3551934654903402
